<svg width="97" height="49" viewBox="0 0 97 49" fill="none" xmlns="http://www.w3.org/2000/svg">
    <path fill-rule="evenodd" clip-rule="evenodd" d="m22.47 19.377-.254.22h-4.153a5.298 5.298 0 0 0-3.027 1.052c-.99-1.249-1.976-2.49-3.052-3.83-.345-.428-.41-.81-.183-1.276a13.979 13.979 0 0 1 1.964-3.093c.627-.76 1.47-1.405 2.306-2.043.195-.15.39-.299.582-.449l1.54 1.95.003.002 5.233 6.63c-.317.287-.639.563-.958.837zm-18.75 1c-.13 0-.258.003-.385.007h-.026c3.058-.088 6.83.454 9.917 1.979a6.51 6.51 0 0 1 .918-1.088l-.29-.359-2.31-2.87-.016-.02c-.84-1.045-1.117-1.389-2.35-.987-2.09.68-4.41 1.716-6.177 2.974l3.43 4.259.004.003c1.235 1.533 2.47 3.064 3.665 4.55.73-.555 1.459-1.105 2.215-1.604v-.007l.002-.002v-2.096a5.01 5.01 0 0 1 .91-2.751l-.044-.022c-2.888-1.416-6.367-1.976-9.3-1.968h-.03l-.132.002zm22.805-1.993c-1.28-1.717-2.338-3.132-3.413-4.571h-.001c-.9-1.204-1.812-2.425-2.878-3.855l-.67.555-.002.001-.004.004-.003.002-.458.38 2.693 3.606 3.01 4.03c-.29.24-.581.472-.871.7l-.196.155h1.576l1.216-1.007zM9.557 31.958l1.202-.967 1.527-1.23V28.45c-.374.276-.74.563-1.108.849h-.001c-.399.311-.798.622-1.207.921-1.079-1.405-2.023-2.638-2.96-3.864h-.001l-.001-.002-.001-.002c-.937-1.225-1.869-2.442-2.924-3.816L3 23.406l.004.005-.003.003c1.195 1.557 2.258 2.945 3.321 4.334 1.036 1.354 2.072 2.708 3.233 4.22l2.73-2.196v-.01l-2.73 2.197h.001zm25.634-11.31h2.212v16.275h8.312v1.963H35.191V20.65zm21.88 6.799a5.624 5.624 0 0 0-1.925-1.298c-.75-.312-1.598-.47-2.521-.47-.958 0-1.836.175-2.609.52a6.046 6.046 0 0 0-1.984 1.403 6.242 6.242 0 0 0-1.259 2.046 6.876 6.876 0 0 0-.439 2.438c0 .91.15 1.786.445 2.602a6.74 6.74 0 0 0 1.265 2.163 6.064 6.064 0 0 0 1.989 1.484c.778.366 1.659.551 2.618.551.671 0 1.327-.094 1.952-.281a6.196 6.196 0 0 0 1.718-.814 5.3 5.3 0 0 0 1.337-1.318c.37-.521.634-1.124.789-1.791l.03-.132H56.45l-.027.069c-.618 1.643-1.852 2.44-3.773 2.44a3.395 3.395 0 0 1-1.563-.37 4.194 4.194 0 0 1-1.265-.99 4.808 4.808 0 0 1-.853-1.426 4.792 4.792 0 0 1-.322-1.551h10.067v-.846c0-.878-.143-1.706-.425-2.461a5.716 5.716 0 0 0-1.22-1.968zm-4.91.12c.625 0 1.192.1 1.686.3.492.199.92.475 1.27.823.35.346.623.762.813 1.234.177.44.28.916.31 1.416H48.19c.022-.465.128-.918.317-1.347a4.085 4.085 0 0 1 2.095-2.107 3.79 3.79 0 0 1 1.558-.32zm26.52-1.887c.153 0 .324.013.508.039.187.026.356.066.501.118l.073.026v2.157l-.143-.046c-.432-.138-.766-.208-.993-.208-.538 0-1.02.092-1.434.273a3.278 3.278 0 0 0-1.062.728c-.289.301-.513.656-.663 1.054-.152.4-.23.823-.23 1.259v7.806h-2.285v-12.98h2.29l-.071 1.673c.395-.562.853-1.007 1.363-1.325.612-.381 1.334-.574 2.146-.574zm13.179 2.294a3.344 3.344 0 0 0-.832-1.244 3.692 3.692 0 0 0-1.325-.781c-.513-.18-1.105-.27-1.756-.27-.869 0-1.73.174-2.561.516-.763.314-1.485.813-2.149 1.485v-1.775h-2.236v12.981h2.236v-7.782c0-.447.111-.887.33-1.309.22-.424.529-.805.919-1.133a4.792 4.792 0 0 1 3.073-1.097c.372 0 .713.041 1.013.121.29.08.54.209.742.386.2.175.354.409.46.695.106.291.16.651.16 1.07v9.049h2.21v-9.273a4.555 4.555 0 0 0-.284-1.64zM71.096 38.639h-2.252c-.191-.37-.572-1.223-.485-2.01a7.508 7.508 0 0 1-1.114 1.073c-.42.32-.844.57-1.26.746a5.08 5.08 0 0 1-1.27.352 9.674 9.674 0 0 1-1.293.086c-.564 0-1.1-.085-1.593-.251a3.875 3.875 0 0 1-1.299-.727 3.477 3.477 0 0 1-.874-1.149 3.449 3.449 0 0 1-.322-1.499c0-.552.133-1.034.396-1.431a3.518 3.518 0 0 1 1.03-1.009c.419-.274.902-.509 1.438-.7.531-.19 1.077-.36 1.623-.507.539-.145 1.083-.287 1.617-.419.522-.13.994-.277 1.403-.439.403-.16.729-.345.97-.554a.9.9 0 0 0 .34-.711c0-.694-.264-1.18-.806-1.488-.557-.313-1.346-.472-2.347-.472-.388 0-.762.036-1.11.108a3.13 3.13 0 0 0-.918.333c-.26.149-.48.342-.656.575a1.827 1.827 0 0 0-.337.838l-.014.09h-2.279l.007-.114c.036-.633.226-1.19.563-1.657.334-.46.76-.846 1.269-1.148a5.907 5.907 0 0 1 1.691-.663 8.721 8.721 0 0 1 3.791-.007 5.48 5.48 0 0 1 1.7.658c.497.303.901.702 1.2 1.186.3.486.453 1.078.453 1.76v6.086c.03.56.164 1.723.738 3.064zm-5.194-2.358c.784-.473 1.49-1.213 2.099-2.2V31.34a3.666 3.666 0 0 1-.96.57c-.46.19-.958.364-1.479.515-.525.152-1.055.299-1.578.436a8.767 8.767 0 0 0-1.417.494c-.41.188-.75.418-1.006.684-.249.257-.37.57-.37.957 0 .36.065.667.192.914.128.248.299.455.512.618.213.163.46.285.73.358.276.075.557.114.837.114.829 0 1.65-.242 2.44-.719zm-36.469-8.016c-.537-.465-1.276-.698-2.217-.698-.748 0-1.397.1-1.944.298-.547.2-1.003.483-1.367.848a3.555 3.555 0 0 0-.822 1.284 4.575 4.575 0 0 0-.272 1.608v7.281h7.428V30.16c0-.797-.268-1.429-.806-1.894zM17.46 21.278h15.875v17.608h-.995v-8.378c0-.689-.079-1.318-.236-1.884a3.437 3.437 0 0 0-.82-1.467c-.39-.41-.899-.73-1.529-.961-.63-.23-1.417-.345-2.361-.345-2.13 0-3.687.773-4.669 2.317h-.056v-2.02h-2.223v12.738h-6.92V25.23a3.944 3.944 0 0 1 3.934-3.952z" fill="#2065D1"/>
    <path d="M91.297 17.958c-.449 0-.893.09-1.308.265a3.415 3.415 0 0 0-1.109.755c-.317.323-.57.707-.74 1.129a3.537 3.537 0 0 0 .74 3.794c.317.323.694.58 1.109.754.415.175.859.265 1.308.265.906 0 1.776-.366 2.417-1.02a3.514 3.514 0 0 0 1-2.46c0-.924-.36-1.81-1-2.462a3.387 3.387 0 0 0-2.417-1.02zm0 .86c.338 0 .673.067.985.199.312.132.596.325.835.568.24.244.429.533.558.85a2.663 2.663 0 0 1-.558 2.858 2.533 2.533 0 0 1-3.64 0 2.647 2.647 0 0 1-.754-1.854c0-.695.27-1.362.754-1.854a2.55 2.55 0 0 1 1.82-.768z" fill="#2065D1"/>
    <path d="M91.112 21.163c.186 0 .321-.037.402-.11.082-.069.126-.186.126-.35 0-.164-.044-.277-.126-.349-.08-.07-.216-.104-.402-.104h-.38v.913h.38zm-.38.632v1.345h-.9v-3.555h1.374c.461 0 .795.079 1.01.237.216.156.32.403.32.745 0 .235-.053.428-.165.579a.957.957 0 0 1-.504.331.69.69 0 0 1 .331.197c.099.1.197.252.295.46l.49 1.006h-.957l-.427-.883c-.085-.176-.173-.3-.261-.362a.578.578 0 0 0-.352-.1h-.254z" fill="#2065D1"/>
</svg>
